<svg width="30.000000" height="30.000000" viewBox="0 0 30 30" fill="none" xmlns="http://www.w3.org/2000/svg" xmlns:xlink="http://www.w3.org/1999/xlink">
	<desc>
			Created with Pixso.
	</desc>
	<defs>
		<clipPath id="clip1_382">
			<rect width="20.000000" height="20.000000" transform="translate(5.000000 5.000000)" fill="white" fill-opacity="0"/>
		</clipPath>
	</defs>
	<g opacity="0.400000">
		<rect width="20.000000" height="20.000000" transform="translate(5.000000 5.000000)" fill="#FFFFFF" fill-opacity="0"/>
		<g clip-path="url(#clip1_382)">
			<path d="M21.6667 8.33334C22.5872 8.33334 23.3334 9.07953 23.3334 10L23.3334 10.8333C23.3334 11.7538 22.5872 12.5 21.6667 12.5L8.3334 12.5C7.41293 12.5 6.66675 11.7538 6.66675 10.8333L6.66675 10C6.66675 9.07953 7.41293 8.33334 8.3334 8.33334L21.6667 8.33334Z" stroke="#FFFFFF" stroke-opacity="1.000000" stroke-width="2.000000" stroke-linejoin="round"/>
			<path d="M8.33325 12.5L8.33325 20C8.33325 20.442 8.50885 20.8659 8.82141 21.1785C9.13397 21.4911 9.55789 21.6667 9.99991 21.6667L19.9999 21.6667C20.442 21.6667 20.8659 21.4911 21.1784 21.1785C21.491 20.8659 21.6666 20.442 21.6666 20L21.6666 12.5" stroke="#FFFFFF" stroke-opacity="1.000000" stroke-width="2.000000" stroke-linejoin="round" stroke-linecap="round"/>
			<path d="M13.3333 15.8333L16.6666 15.8333" stroke="#FFFFFF" stroke-opacity="1.000000" stroke-width="2.000000" stroke-linejoin="round" stroke-linecap="round"/>
		</g>
		<rect rx="7.500000" width="29.000000" height="29.000000" transform="translate(0.500000 0.500000)" stroke="#FFFFFF" stroke-opacity="1.000000" stroke-width="1.000000"/>
	</g>
</svg>
